<!DOCTYPE svg PUBLIC "-//W3C//DTD SVG 20010904//EN" "http://www.w3.org/TR/2001/REC-SVG-20010904/DTD/svg10.dtd">
<svg version="1.0" xmlns="http://www.w3.org/2000/svg" width="52px" height="60px" viewBox="0 0 520 600" preserveAspectRatio="xMidYMid meet">
<g id="layer101" fill="#01bce0" stroke="none">
 <path d="M183 588 c-28 -45 -33 -61 -21 -75 9 -11 9 -16 -2 -23 -12 -7 -11 -11 1 -26 11 -13 11 -18 2 -21 -7 -3 -13 -11 -13 -18 0 -7 6 -15 13 -18 9 -3 9 -8 -2 -21 -11 -13 -11 -20 -3 -28 19 -19 14 -28 -18 -28 -20 0 -40 -11 -66 -37 -57 -60 -77 -107 -72 -171 4 -48 10 -60 41 -89 32 -29 44 -33 90 -33 44 0 59 5 89 30 l37 31 42 -31 c33 -24 52 -30 92 -30 44 0 53 4 88 39 37 36 39 42 39 99 0 55 -3 64 -45 121 -30 41 -54 62 -72 67 -55 11 -56 13 -43 30 10 11 10 18 2 26 -8 8 -7 16 1 30 10 15 9 21 -3 28 -13 9 -13 11 0 20 12 7 13 13 3 28 -8 13 -8 23 -2 29 7 7 4 22 -9 44 -18 33 -20 34 -89 37 -50 2 -74 -1 -80 -10z m137 -28 c0 -6 -27 -10 -61 -10 -37 0 -58 4 -54 10 3 6 31 10 61 10 30 0 54 -4 54 -10z m0 -60 c0 -6 -27 -10 -60 -10 -33 0 -60 4 -60 10 0 6 27 10 60 10 33 0 60 -4 60 -10z m0 -50 c0 -6 -27 -10 -60 -10 -33 0 -60 4 -60 10 0 6 27 10 60 10 33 0 60 -4 60 -10z m0 -50 c0 -6 -27 -10 -60 -10 -33 0 -60 4 -60 10 0 6 27 10 60 10 33 0 60 -4 60 -10z m0 -60 c0 -6 -27 -10 -60 -10 -33 0 -60 4 -60 10 0 6 27 10 60 10 33 0 60 -4 60 -10z m102 -67 c83 -89 91 -190 17 -229 -47 -24 -85 -18 -128 21 -21 19 -43 35 -49 35 -5 0 -29 -16 -52 -35 -57 -47 -99 -48 -146 -1 -54 54 -48 106 23 194 l34 42 138 0 c137 0 137 0 163 -27z"/>
 <path d="M62 159 c-2 -33 4 -46 28 -71 19 -18 38 -28 52 -26 32 5 32 22 -1 35 -28 10 -72 73 -51 73 5 0 10 7 10 15 0 8 -8 15 -18 15 -15 0 -19 -8 -20 -41z"/>
 </g>

</svg>